<svg id="visual" viewBox="0 0 900 600" width="900" height="600" xmlns="http://www.w3.org/2000/svg" xmlns:xlink="http://www.w3.org/1999/xlink" version="1.1"><rect x="0" y="0" width="900" height="600" fill="#000000"></rect><defs><linearGradient id="grad1_0" x1="33.3%" y1="100%" x2="100%" y2="0%"><stop offset="20%" stop-color="#000000" stop-opacity="1"></stop><stop offset="80%" stop-color="#000000" stop-opacity="1"></stop></linearGradient></defs><defs><linearGradient id="grad2_0" x1="0%" y1="100%" x2="66.7%" y2="0%"><stop offset="20%" stop-color="#000000" stop-opacity="1"></stop><stop offset="80%" stop-color="#000000" stop-opacity="1"></stop></linearGradient></defs><g transform="translate(900, 600)"><path d="M-459.7 0C-425.7 -48 -391.7 -96 -375.1 -155.4C-358.5 -214.8 -359.3 -285.6 -325.1 -325.1C-290.8 -364.5 -221.5 -372.7 -161.5 -389.9C-101.5 -407.1 -50.7 -433.4 0 -459.7L0 0Z" fill="#8f8f8f"></path></g><g transform="translate(0, 0)"><path d="M459.7 0C431.4 50.8 403 101.5 385.3 159.6C367.5 217.6 360.3 282.9 325.1 325.1C289.8 367.2 226.5 386.1 167.6 404.7C108.8 423.2 54.4 441.5 0 459.7L0 0Z" fill="#8f8f8f"></path></g></svg>