<svg id="visual" viewBox="0 0 900 600" width="900" height="600" xmlns="http://www.w3.org/2000/svg" xmlns:xlink="http://www.w3.org/1999/xlink" version="1.1"><path d="M0 73L13.7 73C27.3 73 54.7 73 82 84C109.3 95 136.7 117 163.8 129C191 141 218 143 245.2 129C272.3 115 299.7 85 327 83C354.3 81 381.7 107 409 118C436.3 129 463.7 125 491 123C518.3 121 545.7 121 573 115C600.3 109 627.7 97 654.8 95C682 93 709 101 736.2 103C763.3 105 790.7 101 818 110C845.3 119 872.7 141 886.3 152L900 163L900 0L886.3 0C872.7 0 845.3 0 818 0C790.7 0 763.3 0 736.2 0C709 0 682 0 654.8 0C627.7 0 600.3 0 573 0C545.7 0 518.3 0 491 0C463.7 0 436.3 0 409 0C381.7 0 354.3 0 327 0C299.7 0 272.3 0 245.2 0C218 0 191 0 163.8 0C136.7 0 109.3 0 82 0C54.7 0 27.3 0 13.7 0L0 0Z" fill="#6198ff"></path><path d="M0 193L13.7 189C27.3 185 54.7 177 82 197C109.3 217 136.7 265 163.8 299C191 333 218 353 245.2 346C272.3 339 299.7 305 327 283C354.3 261 381.7 251 409 246C436.3 241 463.7 241 491 258C518.3 275 545.7 309 573 311C600.3 313 627.7 283 654.8 267C682 251 709 249 736.2 244C763.3 239 790.7 231 818 247C845.3 263 872.7 303 886.3 323L900 343L900 161L886.3 150C872.7 139 845.3 117 818 108C790.7 99 763.3 103 736.2 101C709 99 682 91 654.8 93C627.7 95 600.3 107 573 113C545.7 119 518.3 119 491 121C463.7 123 436.3 127 409 116C381.7 105 354.3 79 327 81C299.7 83 272.3 113 245.2 127C218 141 191 139 163.8 127C136.7 115 109.3 93 82 82C54.7 71 27.3 71 13.7 71L0 71Z" fill="#3c80ff"></path><path d="M0 277L13.7 273C27.3 269 54.7 261 82 283C109.3 305 136.7 357 163.8 383C191 409 218 409 245.2 399C272.3 389 299.7 369 327 354C354.3 339 381.7 329 409 326C436.3 323 463.7 327 491 338C518.3 349 545.7 367 573 364C600.3 361 627.7 337 654.8 331C682 325 709 337 736.2 329C763.3 321 790.7 293 818 304C845.3 315 872.7 365 886.3 390L900 415L900 341L886.3 321C872.7 301 845.3 261 818 245C790.7 229 763.3 237 736.2 242C709 247 682 249 654.8 265C627.7 281 600.3 311 573 309C545.7 307 518.3 273 491 256C463.7 239 436.3 239 409 244C381.7 249 354.3 259 327 281C299.7 303 272.3 337 245.2 344C218 351 191 331 163.8 297C136.7 263 109.3 215 82 195C54.7 175 27.3 183 13.7 187L0 191Z" fill="#0066ff"></path><path d="M0 325L13.7 328C27.3 331 54.7 337 82 369C109.3 401 136.7 459 163.8 485C191 511 218 505 245.2 492C272.3 479 299.7 459 327 438C354.3 417 381.7 395 409 388C436.3 381 463.7 389 491 405C518.3 421 545.7 445 573 445C600.3 445 627.7 421 654.8 420C682 419 709 441 736.2 439C763.3 437 790.7 411 818 415C845.3 419 872.7 453 886.3 470L900 487L900 413L886.3 388C872.7 363 845.3 313 818 302C790.7 291 763.3 319 736.2 327C709 335 682 323 654.8 329C627.7 335 600.3 359 573 362C545.7 365 518.3 347 491 336C463.7 325 436.3 321 409 324C381.7 327 354.3 337 327 352C299.7 367 272.3 387 245.2 397C218 407 191 407 163.8 381C136.7 355 109.3 303 82 281C54.7 259 27.3 267 13.7 271L0 275Z" fill="#0059dd"></path><path d="M0 601L13.7 601C27.3 601 54.7 601 82 601C109.3 601 136.7 601 163.8 601C191 601 218 601 245.2 601C272.3 601 299.7 601 327 601C354.3 601 381.7 601 409 601C436.3 601 463.7 601 491 601C518.3 601 545.7 601 573 601C600.3 601 627.7 601 654.8 601C682 601 709 601 736.2 601C763.3 601 790.7 601 818 601C845.3 601 872.7 601 886.3 601L900 601L900 485L886.3 468C872.7 451 845.3 417 818 413C790.7 409 763.3 435 736.2 437C709 439 682 417 654.8 418C627.7 419 600.3 443 573 443C545.7 443 518.3 419 491 403C463.7 387 436.3 379 409 386C381.7 393 354.3 415 327 436C299.7 457 272.3 477 245.2 490C218 503 191 509 163.8 483C136.7 457 109.3 399 82 367C54.7 335 27.3 329 13.7 326L0 323Z" fill="#004cbb"></path></svg>