<svg id="visual" viewBox="0 0 510 700" width="510" height="700" xmlns="http://www.w3.org/2000/svg" xmlns:xlink="http://www.w3.org/1999/xlink" version="1.1"><g stroke-width="1" stroke-linejoin="bevel"><path d="M259.3 343.9L203.7 378.1L284.3 379.1Z" fill="#0c2435" stroke="#0c2435"></path><path d="M259.3 343.9L203 368.8L203.7 378.1Z" fill="#081a28" stroke="#081a28"></path><path d="M205.7 438.6L206 420.9L145.3 386.9Z" fill="#0c2435" stroke="#0c2435"></path><path d="M203.7 378.1L206 420.9L284.3 379.1Z" fill="#15384f" stroke="#15384f"></path><path d="M259.3 343.9L217 327.2L203 368.8Z" fill="#205a7a" stroke="#205a7a"></path><path d="M206 420.9L211.7 432.9L284.3 379.1Z" fill="#1d4e6b" stroke="#1d4e6b"></path><path d="M145.3 386.9L206 420.9L203.7 378.1Z" fill="#205a7a" stroke="#205a7a"></path><path d="M206 420.9L205.7 438.6L211.7 432.9Z" fill="#0c2435" stroke="#0c2435"></path><path d="M211.7 432.9L308 406.9L284.3 379.1Z" fill="#081a28" stroke="#081a28"></path><path d="M309 453.8L308 406.9L260.3 481.6Z" fill="#205a7a" stroke="#205a7a"></path><path d="M284.3 379.1L350.7 356.9L259.3 343.9Z" fill="#277297" stroke="#277297"></path><path d="M260.3 481.6L308 406.9L211.7 432.9Z" fill="#205a7a" stroke="#205a7a"></path><path d="M176 301.1L145.3 386.9L203 368.8Z" fill="#112e42" stroke="#112e42"></path><path d="M203 368.8L145.3 386.9L203.7 378.1Z" fill="#297ea6" stroke="#297ea6"></path><path d="M205.7 438.6L260.3 481.6L211.7 432.9Z" fill="#081a28" stroke="#081a28"></path><path d="M205.7 268.4L176 301.1L217 327.2Z" fill="#19435d" stroke="#19435d"></path><path d="M217 327.2L176 301.1L203 368.8Z" fill="#297ea6" stroke="#297ea6"></path><path d="M399.3 480.8L350.7 356.9L308 406.9Z" fill="#19435d" stroke="#19435d"></path><path d="M308 406.9L350.7 356.9L284.3 379.1Z" fill="#112e42" stroke="#112e42"></path><path d="M268.3 248.2L205.7 268.4L217 327.2Z" fill="#00101c" stroke="#00101c"></path><path d="M145.3 386.9L177.7 472.8L205.7 438.6Z" fill="#081a28" stroke="#081a28"></path><path d="M205.7 438.6L177.7 472.8L260.3 481.6Z" fill="#081a28" stroke="#081a28"></path><path d="M268.3 248.2L217 327.2L259.3 343.9Z" fill="#277297" stroke="#277297"></path><path d="M101.3 477.6L173.7 481.5L177.7 472.8Z" fill="#081a28" stroke="#081a28"></path><path d="M177.7 472.8L185 511.6L260.3 481.6Z" fill="#0c2435" stroke="#0c2435"></path><path d="M260.3 481.6L311.3 490.8L309 453.8Z" fill="#19435d" stroke="#19435d"></path><path d="M309 453.8L399.3 480.8L308 406.9Z" fill="#15384f" stroke="#15384f"></path><path d="M301.3 576.5L311.3 490.8L260.3 481.6Z" fill="#297ea6" stroke="#297ea6"></path><path d="M314 264.1L268.3 248.2L259.3 343.9Z" fill="#15384f" stroke="#15384f"></path><path d="M350.7 356.9L314 264.1L259.3 343.9Z" fill="#297ea6" stroke="#297ea6"></path><path d="M205.7 268.4L140.3 284.1L176 301.1Z" fill="#00101c" stroke="#00101c"></path><path d="M176 301.1L140.3 284.1L145.3 386.9Z" fill="#15384f" stroke="#15384f"></path><path d="M119 218.5L140.3 284.1L205.7 268.4Z" fill="#081a28" stroke="#081a28"></path><path d="M173.7 481.5L185 511.6L177.7 472.8Z" fill="#297ea6" stroke="#297ea6"></path><path d="M314 264.1L295.3 245.4L268.3 248.2Z" fill="#0c2435" stroke="#0c2435"></path><path d="M350.7 356.9L350 272.4L314 264.1Z" fill="#0c2435" stroke="#0c2435"></path><path d="M314 264.1L320 240.2L295.3 245.4Z" fill="#0c2435" stroke="#0c2435"></path><path d="M301.3 576.5L345 497.6L311.3 490.8Z" fill="#297ea6" stroke="#297ea6"></path><path d="M311.3 490.8L345 497.6L309 453.8Z" fill="#112e42" stroke="#112e42"></path><path d="M320 240.2L253.7 222.2L295.3 245.4Z" fill="#246688" stroke="#246688"></path><path d="M295.3 245.4L253.7 222.2L268.3 248.2Z" fill="#297ea6" stroke="#297ea6"></path><path d="M268.3 248.2L253.7 222.2L205.7 268.4Z" fill="#0c2435" stroke="#0c2435"></path><path d="M185 511.6L194.7 533.3L260.3 481.6Z" fill="#19435d" stroke="#19435d"></path><path d="M350 272.4L320 240.2L314 264.1Z" fill="#00101c" stroke="#00101c"></path><path d="M145.3 386.9L101.3 477.6L177.7 472.8Z" fill="#00101c" stroke="#00101c"></path><path d="M173.7 481.5L124 555.5L185 511.6Z" fill="#205a7a" stroke="#205a7a"></path><path d="M124 555.5L164.3 574.5L194.7 533.3Z" fill="#15384f" stroke="#15384f"></path><path d="M74.3 470.8L101.3 477.6L145.3 386.9Z" fill="#19435d" stroke="#19435d"></path><path d="M345 497.6L399.3 480.8L309 453.8Z" fill="#0c2435" stroke="#0c2435"></path><path d="M350.7 356.9L402.7 274.1L350 272.4Z" fill="#246688" stroke="#246688"></path><path d="M35.7 346.1L53.7 390.8L145.3 386.9Z" fill="#15384f" stroke="#15384f"></path><path d="M473.3 340.1L402.7 274.1L350.7 356.9Z" fill="#297ea6" stroke="#297ea6"></path><path d="M350 272.4L381.7 232.4L320 240.2Z" fill="#00101c" stroke="#00101c"></path><path d="M53.7 390.8L74.3 470.8L145.3 386.9Z" fill="#0c2435" stroke="#0c2435"></path><path d="M164.3 574.5L221.3 588.3L194.7 533.3Z" fill="#1d4e6b" stroke="#1d4e6b"></path><path d="M402.7 274.1L399.7 259.2L350 272.4Z" fill="#19435d" stroke="#19435d"></path><path d="M227.3 134.5L189 153.7L253.7 222.2Z" fill="#15384f" stroke="#15384f"></path><path d="M399.7 259.2L381.7 232.4L350 272.4Z" fill="#0c2435" stroke="#0c2435"></path><path d="M221.3 588.3L301.3 576.5L260.3 481.6Z" fill="#0c2435" stroke="#0c2435"></path><path d="M345 497.6L383 547.5L399.3 480.8Z" fill="#19435d" stroke="#19435d"></path><path d="M154.3 165.7L119 218.5L205.7 268.4Z" fill="#0c2435" stroke="#0c2435"></path><path d="M140.3 284.1L35.7 346.1L145.3 386.9Z" fill="#081a28" stroke="#081a28"></path><path d="M35.7 346.1L38.7 392.9L53.7 390.8Z" fill="#1d4e6b" stroke="#1d4e6b"></path><path d="M53.7 390.8L38.7 392.9L74.3 470.8Z" fill="#1d4e6b" stroke="#1d4e6b"></path><path d="M119 218.5L93.3 239.2L140.3 284.1Z" fill="#15384f" stroke="#15384f"></path><path d="M194.7 533.3L185 511.6L124 555.5Z" fill="#1d4e6b" stroke="#1d4e6b"></path><path d="M194.7 533.3L221.3 588.3L260.3 481.6Z" fill="#277297" stroke="#277297"></path><path d="M43.7 482.5L74.7 502.6L74.3 470.8Z" fill="#15384f" stroke="#15384f"></path><path d="M74.3 470.8L74.7 502.6L101.3 477.6Z" fill="#205a7a" stroke="#205a7a"></path><path d="M124 555.5L173.7 481.5L101.3 477.6Z" fill="#246688" stroke="#246688"></path><path d="M93.3 239.2L35.7 346.1L140.3 284.1Z" fill="#1d4e6b" stroke="#1d4e6b"></path><path d="M74.7 502.6L124 555.5L101.3 477.6Z" fill="#00101c" stroke="#00101c"></path><path d="M349.7 577.5L383 547.5L345 497.6Z" fill="#081a28" stroke="#081a28"></path><path d="M301.3 576.5L349.7 577.5L345 497.6Z" fill="#00101c" stroke="#00101c"></path><path d="M345.7 588.3L349.7 577.5L301.3 576.5Z" fill="#277297" stroke="#277297"></path><path d="M0 431.8L43.7 482.5L74.3 470.8Z" fill="#00101c" stroke="#00101c"></path><path d="M74.7 502.6L30.7 551.3L124 555.5Z" fill="#15384f" stroke="#15384f"></path><path d="M0 431.8L74.3 470.8L38.7 392.9Z" fill="#277297" stroke="#277297"></path><path d="M444.7 486.8L455.3 458.6L399.3 480.8Z" fill="#297ea6" stroke="#297ea6"></path><path d="M399.3 480.8L455.3 458.6L350.7 356.9Z" fill="#1d4e6b" stroke="#1d4e6b"></path><path d="M402.7 274.1L457.3 210.2L399.7 259.2Z" fill="#15384f" stroke="#15384f"></path><path d="M383 547.5L444.7 486.8L399.3 480.8Z" fill="#15384f" stroke="#15384f"></path><path d="M298 618.2L345.7 588.3L301.3 576.5Z" fill="#246688" stroke="#246688"></path><path d="M349.7 577.5L433.7 638.2L383 547.5Z" fill="#246688" stroke="#246688"></path><path d="M383 547.5L457.7 493.6L444.7 486.8Z" fill="#205a7a" stroke="#205a7a"></path><path d="M486.3 396.9L473.3 340.1L350.7 356.9Z" fill="#15384f" stroke="#15384f"></path><path d="M457.3 210.2L393.3 162.4L381.7 232.4Z" fill="#0c2435" stroke="#0c2435"></path><path d="M189 153.7L205.7 268.4L253.7 222.2Z" fill="#246688" stroke="#246688"></path><path d="M189 153.7L154.3 165.7L205.7 268.4Z" fill="#246688" stroke="#246688"></path><path d="M119 218.5L85.3 170.4L93.3 239.2Z" fill="#1d4e6b" stroke="#1d4e6b"></path><path d="M227.3 134.5L253.7 222.2L279.7 126.7Z" fill="#297ea6" stroke="#297ea6"></path><path d="M221.3 588.3L293 617.3L301.3 576.5Z" fill="#277297" stroke="#277297"></path><path d="M208 627.2L293 617.3L221.3 588.3Z" fill="#277297" stroke="#277297"></path><path d="M510 478.8L457.7 493.6L510 536.6Z" fill="#297ea6" stroke="#297ea6"></path><path d="M444.7 486.8L457.7 493.6L455.3 458.6Z" fill="#112e42" stroke="#112e42"></path><path d="M455.3 458.6L486.3 396.9L350.7 356.9Z" fill="#0c2435" stroke="#0c2435"></path><path d="M113.7 655.2L187 616.3L164.3 574.5Z" fill="#297ea6" stroke="#297ea6"></path><path d="M164.3 574.5L187 616.3L221.3 588.3Z" fill="#19435d" stroke="#19435d"></path><path d="M113.7 655.2L164.3 574.5L124 555.5Z" fill="#19435d" stroke="#19435d"></path><path d="M510 478.8L486.3 396.9L455.3 458.6Z" fill="#0c2435" stroke="#0c2435"></path><path d="M293 617.3L298 618.2L301.3 576.5Z" fill="#205a7a" stroke="#205a7a"></path><path d="M275.3 706.2L298 618.2L293 617.3Z" fill="#00101c" stroke="#00101c"></path><path d="M4.7 320.2L0 398.9L35.7 346.1Z" fill="#15384f" stroke="#15384f"></path><path d="M35.7 346.1L0 398.9L38.7 392.9Z" fill="#205a7a" stroke="#205a7a"></path><path d="M0 283.1L35.7 346.1L93.3 239.2Z" fill="#1d4e6b" stroke="#1d4e6b"></path><path d="M0 283.1L4.7 320.2L35.7 346.1Z" fill="#112e42" stroke="#112e42"></path><path d="M112.3 107.5L121 153.4L154.3 165.7Z" fill="#297ea6" stroke="#297ea6"></path><path d="M279.7 126.7L253.7 222.2L320 240.2Z" fill="#1d4e6b" stroke="#1d4e6b"></path><path d="M187 616.3L208 627.2L221.3 588.3Z" fill="#0c2435" stroke="#0c2435"></path><path d="M0 398.9L0 431.8L38.7 392.9Z" fill="#1d4e6b" stroke="#1d4e6b"></path><path d="M393.3 162.4L279.7 126.7L320 240.2Z" fill="#0c2435" stroke="#0c2435"></path><path d="M193.7 106.5L154.3 165.7L189 153.7Z" fill="#1d4e6b" stroke="#1d4e6b"></path><path d="M154.3 165.7L121 153.4L119 218.5Z" fill="#112e42" stroke="#112e42"></path><path d="M-3.3 250.4L0 283.1L93.3 239.2Z" fill="#15384f" stroke="#15384f"></path><path d="M4.7 320.2L0 283.1L0 398.9Z" fill="#246688" stroke="#246688"></path><path d="M121 153.4L85.3 170.4L119 218.5Z" fill="#205a7a" stroke="#205a7a"></path><path d="M457.3 210.2L381.7 232.4L399.7 259.2Z" fill="#00101c" stroke="#00101c"></path><path d="M381.7 232.4L393.3 162.4L320 240.2Z" fill="#19435d" stroke="#19435d"></path><path d="M486.3 396.9L510 342.1L473.3 340.1Z" fill="#19435d" stroke="#19435d"></path><path d="M473.3 340.1L510 264.2L402.7 274.1Z" fill="#112e42" stroke="#112e42"></path><path d="M510 478.8L510 342.1L486.3 396.9Z" fill="#19435d" stroke="#19435d"></path><path d="M279.7 126.7L223.3 112.8L227.3 134.5Z" fill="#112e42" stroke="#112e42"></path><path d="M227.3 134.5L193.7 106.5L189 153.7Z" fill="#081a28" stroke="#081a28"></path><path d="M510 342.1L510 322.9L473.3 340.1Z" fill="#081a28" stroke="#081a28"></path><path d="M0 524.6L30.7 551.3L43.7 482.5Z" fill="#0c2435" stroke="#0c2435"></path><path d="M43.7 482.5L30.7 551.3L74.7 502.6Z" fill="#0c2435" stroke="#0c2435"></path><path d="M187 616.3L208.7 653.2L208 627.2Z" fill="#15384f" stroke="#15384f"></path><path d="M510 264.2L457.3 210.2L402.7 274.1Z" fill="#277297" stroke="#277297"></path><path d="M457.7 164.5L397.7 154.7L393.3 162.4Z" fill="#246688" stroke="#246688"></path><path d="M393.3 162.4L374 123.5L279.7 126.7Z" fill="#00101c" stroke="#00101c"></path><path d="M282.3 68.7L202.7 70.8L223.3 112.8Z" fill="#205a7a" stroke="#205a7a"></path><path d="M120.3 667.2L208.7 653.2L187 616.3Z" fill="#00101c" stroke="#00101c"></path><path d="M208 627.2L208.7 653.2L293 617.3Z" fill="#1d4e6b" stroke="#1d4e6b"></path><path d="M223.3 112.8L193.7 106.5L227.3 134.5Z" fill="#00101c" stroke="#00101c"></path><path d="M121 153.4L77.7 136.7L85.3 170.4Z" fill="#246688" stroke="#246688"></path><path d="M9.7 214.5L-3.3 250.4L93.3 239.2Z" fill="#1d4e6b" stroke="#1d4e6b"></path><path d="M0 283.1L-3.3 250.4L0 398.9Z" fill="#0c2435" stroke="#0c2435"></path><path d="M0 398.9L-3.3 250.4L0 431.8Z" fill="#19435d" stroke="#19435d"></path><path d="M0 431.8L0 524.6L43.7 482.5Z" fill="#297ea6" stroke="#297ea6"></path><path d="M-3.3 250.4L0 524.6L0 431.8Z" fill="#277297" stroke="#277297"></path><path d="M466.3 584.2L457.7 493.6L383 547.5Z" fill="#246688" stroke="#246688"></path><path d="M457.7 493.6L510 478.8L455.3 458.6Z" fill="#277297" stroke="#277297"></path><path d="M85.3 170.4L9.7 214.5L93.3 239.2Z" fill="#277297" stroke="#277297"></path><path d="M0 214.2L9.7 214.5L0 174.5Z" fill="#1d4e6b" stroke="#1d4e6b"></path><path d="M469.3 97.7L374 123.5L397.7 154.7Z" fill="#277297" stroke="#277297"></path><path d="M397.7 154.7L374 123.5L393.3 162.4Z" fill="#19435d" stroke="#19435d"></path><path d="M223.3 112.8L202.7 70.8L193.7 106.5Z" fill="#112e42" stroke="#112e42"></path><path d="M510 322.9L510 264.2L473.3 340.1Z" fill="#0c2435" stroke="#0c2435"></path><path d="M457.3 210.2L457.7 164.5L393.3 162.4Z" fill="#15384f" stroke="#15384f"></path><path d="M0 174.5L9.7 214.5L85.3 170.4Z" fill="#1d4e6b" stroke="#1d4e6b"></path><path d="M9.7 214.5L0 214.2L-3.3 250.4Z" fill="#246688" stroke="#246688"></path><path d="M112.3 107.5L77.7 136.7L121 153.4Z" fill="#1d4e6b" stroke="#1d4e6b"></path><path d="M0 604.3L73.3 627.3L30.7 551.3Z" fill="#297ea6" stroke="#297ea6"></path><path d="M30.7 551.3L73.3 627.3L124 555.5Z" fill="#15384f" stroke="#15384f"></path><path d="M474.3 593.3L466.3 584.2L433.7 638.2Z" fill="#00101c" stroke="#00101c"></path><path d="M433.7 638.2L466.3 584.2L383 547.5Z" fill="#112e42" stroke="#112e42"></path><path d="M349.7 577.5L345.7 588.3L433.7 638.2Z" fill="#081a28" stroke="#081a28"></path><path d="M73.3 627.3L113.7 655.2L124 555.5Z" fill="#00101c" stroke="#00101c"></path><path d="M193.7 106.5L112.3 107.5L154.3 165.7Z" fill="#1d4e6b" stroke="#1d4e6b"></path><path d="M510 186.5L457.7 164.5L457.3 210.2Z" fill="#246688" stroke="#246688"></path><path d="M466.3 584.2L510 536.6L457.7 493.6Z" fill="#15384f" stroke="#15384f"></path><path d="M120.3 700L120.3 667.2L67.7 700Z" fill="#1d4e6b" stroke="#1d4e6b"></path><path d="M113.7 655.2L120.3 667.2L187 616.3Z" fill="#246688" stroke="#246688"></path><path d="M386.7 61.8L351 88.8L374 123.5Z" fill="#277297" stroke="#277297"></path><path d="M374 123.5L351 88.8L279.7 126.7Z" fill="#277297" stroke="#277297"></path><path d="M193.7 106.5L184 38.8L112.3 107.5Z" fill="#205a7a" stroke="#205a7a"></path><path d="M433.7 638.2L345.7 588.3L398.7 700Z" fill="#205a7a" stroke="#205a7a"></path><path d="M466.3 584.2L510 587.5L510 536.6Z" fill="#297ea6" stroke="#297ea6"></path><path d="M282.3 68.7L223.3 112.8L279.7 126.7Z" fill="#081a28" stroke="#081a28"></path><path d="M0 524.6L0 580.5L30.7 551.3Z" fill="#1d4e6b" stroke="#1d4e6b"></path><path d="M67.7 700L120.3 667.2L113.7 655.2Z" fill="#081a28" stroke="#081a28"></path><path d="M-3.3 250.4L0 580.5L0 524.6Z" fill="#277297" stroke="#277297"></path><path d="M351 88.8L282.3 68.7L279.7 126.7Z" fill="#0c2435" stroke="#0c2435"></path><path d="M179 700L226.7 700L208.7 653.2Z" fill="#1d4e6b" stroke="#1d4e6b"></path><path d="M208.7 653.2L275.3 706.2L293 617.3Z" fill="#205a7a" stroke="#205a7a"></path><path d="M329.3 700L345.7 588.3L298 618.2Z" fill="#277297" stroke="#277297"></path><path d="M0 214.2L0 174.5L-3.3 250.4Z" fill="#246688" stroke="#246688"></path><path d="M0 173.4L0 174.5L85.3 170.4Z" fill="#246688" stroke="#246688"></path><path d="M0 173.4L85.3 170.4L77.7 136.7Z" fill="#277297" stroke="#277297"></path><path d="M19.7 98.8L0 173.4L77.7 136.7Z" fill="#1d4e6b" stroke="#1d4e6b"></path><path d="M0 174.5L0 173.4L-3.3 250.4Z" fill="#19435d" stroke="#19435d"></path><path d="M510 264.2L510 200.4L457.3 210.2Z" fill="#205a7a" stroke="#205a7a"></path><path d="M457.7 164.5L467.3 144.5L397.7 154.7Z" fill="#246688" stroke="#246688"></path><path d="M120.3 667.2L179 700L208.7 653.2Z" fill="#0c2435" stroke="#0c2435"></path><path d="M510 186.5L467.3 144.5L457.7 164.5Z" fill="#1d4e6b" stroke="#1d4e6b"></path><path d="M179 700L275.3 706.2L226.7 700Z" fill="#277297" stroke="#277297"></path><path d="M226.7 700L275.3 706.2L208.7 653.2Z" fill="#0c2435" stroke="#0c2435"></path><path d="M510 617.3L491.3 596.5L474.3 593.3Z" fill="#112e42" stroke="#112e42"></path><path d="M474.3 593.3L491.3 596.5L466.3 584.2Z" fill="#15384f" stroke="#15384f"></path><path d="M275.3 706.2L322 700L298 618.2Z" fill="#081a28" stroke="#081a28"></path><path d="M510 200.4L510 186.5L457.3 210.2Z" fill="#00101c" stroke="#00101c"></path><path d="M275.3 706.2L329.3 700L322 700Z" fill="#1d4e6b" stroke="#1d4e6b"></path><path d="M322 700L329.3 700L298 618.2Z" fill="#15384f" stroke="#15384f"></path><path d="M-3.3 250.4L0 604.3L0 580.5Z" fill="#277297" stroke="#277297"></path><path d="M0 580.5L0 604.3L30.7 551.3Z" fill="#1d4e6b" stroke="#1d4e6b"></path><path d="M120.3 667.2L120.3 700L179 700Z" fill="#0c2435" stroke="#0c2435"></path><path d="M510 617.3L510 587.5L491.3 596.5Z" fill="#19435d" stroke="#19435d"></path><path d="M491.3 596.5L510 587.5L466.3 584.2Z" fill="#0c2435" stroke="#0c2435"></path><path d="M67.7 700L113.7 655.2L73.3 627.3Z" fill="#205a7a" stroke="#205a7a"></path><path d="M179 700L120.3 700L275.3 706.2Z" fill="#00101c" stroke="#00101c"></path><path d="M202.7 70.8L184 38.8L193.7 106.5Z" fill="#297ea6" stroke="#297ea6"></path><path d="M112.3 107.5L19.7 98.8L77.7 136.7Z" fill="#112e42" stroke="#112e42"></path><path d="M192.7 0L184 38.8L202.7 70.8Z" fill="#205a7a" stroke="#205a7a"></path><path d="M192.7 0L202.7 70.8L282.3 68.7Z" fill="#277297" stroke="#277297"></path><path d="M469.3 97.7L386.7 61.8L374 123.5Z" fill="#246688" stroke="#246688"></path><path d="M351 88.8L358 47.7L282.3 68.7Z" fill="#112e42" stroke="#112e42"></path><path d="M469.3 97.7L397.7 154.7L467.3 144.5Z" fill="#205a7a" stroke="#205a7a"></path><path d="M386.7 61.8L358 47.7L351 88.8Z" fill="#081a28" stroke="#081a28"></path><path d="M-3.3 250.4L0 636.2L0 604.3Z" fill="#081a28" stroke="#081a28"></path><path d="M0 604.3L0 636.2L73.3 627.3Z" fill="#00101c" stroke="#00101c"></path><path d="M275.3 706.2L398.7 700L329.3 700Z" fill="#246688" stroke="#246688"></path><path d="M329.3 700L398.7 700L345.7 588.3Z" fill="#19435d" stroke="#19435d"></path><path d="M433.7 638.2L510 617.3L474.3 593.3Z" fill="#277297" stroke="#277297"></path><path d="M510 676.2L510 617.3L433.7 638.2Z" fill="#081a28" stroke="#081a28"></path><path d="M30.7 0L19.7 98.8L112.3 107.5Z" fill="#19435d" stroke="#19435d"></path><path d="M510 131.7L469.3 97.7L467.3 144.5Z" fill="#081a28" stroke="#081a28"></path><path d="M302.3 0L282.3 68.7L358 47.7Z" fill="#246688" stroke="#246688"></path><path d="M0 636.2L67.7 700L73.3 627.3Z" fill="#1d4e6b" stroke="#1d4e6b"></path><path d="M120.3 700L67.7 700L275.3 706.2Z" fill="#0c2435" stroke="#0c2435"></path><path d="M510 186.5L510 131.7L467.3 144.5Z" fill="#081a28" stroke="#081a28"></path><path d="M19.7 98.8L0 108.7L0 173.4Z" fill="#081a28" stroke="#081a28"></path><path d="M0 173.4L0 108.7L-3.3 250.4Z" fill="#297ea6" stroke="#297ea6"></path><path d="M398.7 700L428.3 700L433.7 638.2Z" fill="#297ea6" stroke="#297ea6"></path><path d="M275.3 706.2L428.3 700L398.7 700Z" fill="#00101c" stroke="#00101c"></path><path d="M0 0L0 99.8L19.7 98.8Z" fill="#15384f" stroke="#15384f"></path><path d="M19.7 98.8L0 99.8L0 108.7Z" fill="#205a7a" stroke="#205a7a"></path><path d="M0 108.7L0 99.8L-3.3 250.4Z" fill="#277297" stroke="#277297"></path><path d="M300 0L192.7 0L282.3 68.7Z" fill="#15384f" stroke="#15384f"></path><path d="M184 38.8L113 0L112.3 107.5Z" fill="#0c2435" stroke="#0c2435"></path><path d="M302.3 0L358 47.7L367.7 0Z" fill="#1d4e6b" stroke="#1d4e6b"></path><path d="M302.3 0L300 0L282.3 68.7Z" fill="#112e42" stroke="#112e42"></path><path d="M367.7 0L358 47.7L386.7 61.8Z" fill="#112e42" stroke="#112e42"></path><path d="M192.7 0L166.3 0L184 38.8Z" fill="#0c2435" stroke="#0c2435"></path><path d="M510 35.8L468.3 58.8L469.3 97.7Z" fill="#297ea6" stroke="#297ea6"></path><path d="M469.3 97.7L468.3 58.8L386.7 61.8Z" fill="#19435d" stroke="#19435d"></path><path d="M428.3 700L510 676.2L433.7 638.2Z" fill="#1d4e6b" stroke="#1d4e6b"></path><path d="M429.3 0L367.7 0L386.7 61.8Z" fill="#112e42" stroke="#112e42"></path><path d="M-3.3 250.4L0 700L0 636.2Z" fill="#081a28" stroke="#081a28"></path><path d="M0 636.2L0 700L67.7 700Z" fill="#0c2435" stroke="#0c2435"></path><path d="M67.7 700L0 700L275.3 706.2Z" fill="#0c2435" stroke="#0c2435"></path><path d="M166.3 0L113 0L184 38.8Z" fill="#0c2435" stroke="#0c2435"></path><path d="M192.7 0L110.3 -0.2L166.3 0Z" fill="#246688" stroke="#246688"></path><path d="M166.3 0L110.3 -0.2L113 0Z" fill="#081a28" stroke="#081a28"></path><path d="M113 0L110.3 -0.2L112.3 107.5Z" fill="#081a28" stroke="#081a28"></path><path d="M300 0L110.3 -0.2L192.7 0Z" fill="#19435d" stroke="#19435d"></path><path d="M302.3 0L110.3 -0.2L300 0Z" fill="#297ea6" stroke="#297ea6"></path><path d="M367.7 0L110.3 -0.2L302.3 0Z" fill="#081a28" stroke="#081a28"></path><path d="M275.3 706.2L510 700L428.3 700Z" fill="#081a28" stroke="#081a28"></path><path d="M428.3 700L510 700L510 676.2Z" fill="#297ea6" stroke="#297ea6"></path><path d="M468.3 58.8L429.3 0L386.7 61.8Z" fill="#246688" stroke="#246688"></path><path d="M367.7 0L429.3 0L110.3 -0.2Z" fill="#112e42" stroke="#112e42"></path><path d="M510 131.7L510 35.8L469.3 97.7Z" fill="#297ea6" stroke="#297ea6"></path><path d="M468.3 58.8L510 0L429.3 0Z" fill="#00101c" stroke="#00101c"></path><path d="M110.3 -0.2L30.7 0L112.3 107.5Z" fill="#205a7a" stroke="#205a7a"></path><path d="M110.3 -0.2L0 0L30.7 0Z" fill="#081a28" stroke="#081a28"></path><path d="M30.7 0L0 0L19.7 98.8Z" fill="#112e42" stroke="#112e42"></path><path d="M0 99.8L0 0L-3.3 250.4Z" fill="#246688" stroke="#246688"></path><path d="M510 35.8L510 0L468.3 58.8Z" fill="#112e42" stroke="#112e42"></path><path d="M429.3 0L510 0L110.3 -0.2Z" fill="#0c2435" stroke="#0c2435"></path></g></svg>