<svg id="visual" viewBox="0 0 3500 992" width="3500" height="992" xmlns="http://www.w3.org/2000/svg" xmlns:xlink="http://www.w3.org/1999/xlink" version="1.1"><path d="M0 309L53 290.7C106 272.3 212 235.7 318 237.2C424 238.7 530 278.3 636.2 299.8C742.3 321.3 848.7 324.7 954.8 341.3C1061 358 1167 388 1273 393C1379 398 1485 378 1591 343.2C1697 308.3 1803 258.7 1909 245.5C2015 232.3 2121 255.7 2227 275.5C2333 295.3 2439 311.7 2545.2 338C2651.3 364.3 2757.7 400.7 2863.8 384.2C2970 367.7 3076 298.3 3182 262C3288 225.7 3394 222.3 3447 220.7L3500 219L3500 0L3447 0C3394 0 3288 0 3182 0C3076 0 2970 0 2863.8 0C2757.7 0 2651.3 0 2545.2 0C2439 0 2333 0 2227 0C2121 0 2015 0 1909 0C1803 0 1697 0 1591 0C1485 0 1379 0 1273 0C1167 0 1061 0 954.8 0C848.7 0 742.3 0 636.2 0C530 0 424 0 318 0C212 0 106 0 53 0L0 0Z" fill="#004cbb"></path><path d="M0 467L53 447.2C106 427.3 212 387.7 318 391C424 394.3 530 440.7 636.2 460.5C742.3 480.3 848.7 473.7 954.8 491.8C1061 510 1167 553 1273 568C1379 583 1485 570 1591 532C1697 494 1803 431 1909 417.7C2015 404.3 2121 440.7 2227 449C2333 457.3 2439 437.7 2545.2 462.5C2651.3 487.3 2757.7 556.7 2863.8 541.7C2970 526.7 3076 427.3 3182 382.7C3288 338 3394 348 3447 353L3500 358L3500 217L3447 218.7C3394 220.3 3288 223.7 3182 260C3076 296.3 2970 365.7 2863.8 382.2C2757.7 398.7 2651.3 362.3 2545.2 336C2439 309.7 2333 293.3 2227 273.5C2121 253.7 2015 230.3 1909 243.5C1803 256.7 1697 306.3 1591 341.2C1485 376 1379 396 1273 391C1167 386 1061 356 954.8 339.3C848.7 322.7 742.3 319.3 636.2 297.8C530 276.3 424 236.7 318 235.2C212 233.7 106 270.3 53 288.7L0 307Z" fill="#0059dd"></path><path d="M0 527L53 513.7C106 500.3 212 473.7 318 486.8C424 500 530 553 636.2 571.3C742.3 589.7 848.7 573.3 954.8 585C1061 596.7 1167 636.3 1273 651.2C1379 666 1485 656 1591 626.2C1697 596.3 1803 546.7 1909 543.3C2015 540 2121 583 2227 597.8C2333 612.7 2439 599.3 2545.2 610.8C2651.3 622.3 2757.7 658.7 2863.8 643.8C2970 629 3076 563 3182 521.7C3288 480.3 3394 463.7 3447 455.3L3500 447L3500 356L3447 351C3394 346 3288 336 3182 380.7C3076 425.3 2970 524.7 2863.8 539.7C2757.7 554.7 2651.3 485.3 2545.2 460.5C2439 435.7 2333 455.3 2227 447C2121 438.7 2015 402.3 1909 415.7C1803 429 1697 492 1591 530C1485 568 1379 581 1273 566C1167 551 1061 508 954.8 489.8C848.7 471.7 742.3 478.3 636.2 458.5C530 438.7 424 392.3 318 389C212 385.7 106 425.3 53 445.2L0 465Z" fill="#0066ff"></path><path d="M0 765L53 760C106 755 212 745 318 753.2C424 761.3 530 787.7 636.2 810.8C742.3 834 848.7 854 954.8 857.3C1061 860.7 1167 847.3 1273 844C1379 840.7 1485 847.3 1591 832.5C1697 817.7 1803 781.3 1909 773.2C2015 765 2121 785 2227 808.2C2333 831.3 2439 857.7 2545.2 867.5C2651.3 877.3 2757.7 870.7 2863.8 874C2970 877.3 3076 890.7 3182 869.2C3288 847.7 3394 791.3 3447 763.2L3500 735L3500 445L3447 453.3C3394 461.7 3288 478.3 3182 519.7C3076 561 2970 627 2863.8 641.8C2757.7 656.7 2651.3 620.3 2545.2 608.8C2439 597.3 2333 610.7 2227 595.8C2121 581 2015 538 1909 541.3C1803 544.7 1697 594.3 1591 624.2C1485 654 1379 664 1273 649.2C1167 634.3 1061 594.7 954.8 583C848.7 571.3 742.3 587.7 636.2 569.3C530 551 424 498 318 484.8C212 471.7 106 498.3 53 511.7L0 525Z" fill="#3c80ff"></path><path d="M0 993L53 993C106 993 212 993 318 993C424 993 530 993 636.2 993C742.3 993 848.7 993 954.8 993C1061 993 1167 993 1273 993C1379 993 1485 993 1591 993C1697 993 1803 993 1909 993C2015 993 2121 993 2227 993C2333 993 2439 993 2545.2 993C2651.3 993 2757.7 993 2863.8 993C2970 993 3076 993 3182 993C3288 993 3394 993 3447 993L3500 993L3500 733L3447 761.2C3394 789.3 3288 845.7 3182 867.2C3076 888.7 2970 875.3 2863.8 872C2757.7 868.7 2651.3 875.3 2545.2 865.5C2439 855.7 2333 829.3 2227 806.2C2121 783 2015 763 1909 771.2C1803 779.3 1697 815.7 1591 830.5C1485 845.3 1379 838.7 1273 842C1167 845.3 1061 858.7 954.8 855.3C848.7 852 742.3 832 636.2 808.8C530 785.7 424 759.3 318 751.2C212 743 106 753 53 758L0 763Z" fill="#6198ff"></path></svg>