<svg id="visual" viewBox="0 0 675 900" width="510" height="700" xmlns="http://www.w3.org/2000/svg" xmlns:xlink="http://www.w3.org/1999/xlink" version="1.1"><g stroke-width="1" stroke-linejoin="bevel"><path d="M320.5 465.9L383.9 451.9L367.5 394.1Z" fill="#081a28" stroke="#081a28"></path><path d="M367.5 394.1L276.1 398.1L320.5 465.9Z" fill="#00101c" stroke="#00101c"></path><path d="M383.9 451.9L431.9 440.1L367.5 394.1Z" fill="#0c2435" stroke="#0c2435"></path><path d="M450.9 331.3L326.5 332.3L367.5 394.1Z" fill="#112e42" stroke="#112e42"></path><path d="M367.5 394.1L326.5 332.3L276.1 398.1Z" fill="#081a28" stroke="#081a28"></path><path d="M218.1 490.9L351.5 534.7L320.5 465.9Z" fill="#19435d" stroke="#19435d"></path><path d="M320.5 465.9L351.5 534.7L383.9 451.9Z" fill="#246688" stroke="#246688"></path><path d="M383.9 451.9L351.5 534.7L431.9 440.1Z" fill="#15384f" stroke="#15384f"></path><path d="M276.1 398.1L218.1 490.9L320.5 465.9Z" fill="#0c2435" stroke="#0c2435"></path><path d="M431.9 440.1L450.9 331.3L367.5 394.1Z" fill="#15384f" stroke="#15384f"></path><path d="M450.9 331.3L390.9 266.5L326.5 332.3Z" fill="#205a7a" stroke="#205a7a"></path><path d="M522.3 508.9L521.3 432.1L431.9 440.1Z" fill="#15384f" stroke="#15384f"></path><path d="M431.9 440.1L521.3 432.1L450.9 331.3Z" fill="#246688" stroke="#246688"></path><path d="M226.1 288.3L182.8 348.3L276.1 398.1Z" fill="#00101c" stroke="#00101c"></path><path d="M276.1 398.1L182.8 348.3L218.1 490.9Z" fill="#00101c" stroke="#00101c"></path><path d="M226.1 288.3L276.1 398.1L326.5 332.3Z" fill="#205a7a" stroke="#205a7a"></path><path d="M244.1 260.5L226.1 288.3L326.5 332.3Z" fill="#112e42" stroke="#112e42"></path><path d="M133.8 396.1L177.8 520.9L218.1 490.9Z" fill="#15384f" stroke="#15384f"></path><path d="M220.1 598.7L338.5 622.5L351.5 534.7Z" fill="#15384f" stroke="#15384f"></path><path d="M202.8 569.7L351.5 534.7L218.1 490.9Z" fill="#081a28" stroke="#081a28"></path><path d="M457.9 602.7L522.3 508.9L431.9 440.1Z" fill="#0c2435" stroke="#0c2435"></path><path d="M457.9 602.7L431.9 440.1L351.5 534.7Z" fill="#00101c" stroke="#00101c"></path><path d="M521.3 432.1L516.3 332.3L450.9 331.3Z" fill="#112e42" stroke="#112e42"></path><path d="M450.9 331.3L502.3 258.5L390.9 266.5Z" fill="#0c2435" stroke="#0c2435"></path><path d="M318.5 228.5L244.1 260.5L326.5 332.3Z" fill="#277297" stroke="#277297"></path><path d="M99.4 400.1L133.8 396.1L121.4 312.3Z" fill="#0c2435" stroke="#0c2435"></path><path d="M177.8 520.9L202.8 569.7L218.1 490.9Z" fill="#297ea6" stroke="#297ea6"></path><path d="M338.5 622.5L457.9 602.7L351.5 534.7Z" fill="#081a28" stroke="#081a28"></path><path d="M340.5 131.6L318.5 228.5L390.9 266.5Z" fill="#0c2435" stroke="#0c2435"></path><path d="M390.9 266.5L318.5 228.5L326.5 332.3Z" fill="#00101c" stroke="#00101c"></path><path d="M202.8 569.7L220.1 598.7L351.5 534.7Z" fill="#297ea6" stroke="#297ea6"></path><path d="M133.8 396.1L182.8 348.3L121.4 312.3Z" fill="#0c2435" stroke="#0c2435"></path><path d="M182.8 348.3L133.8 396.1L218.1 490.9Z" fill="#205a7a" stroke="#205a7a"></path><path d="M521.3 432.1L564.6 379.1L516.3 332.3Z" fill="#19435d" stroke="#19435d"></path><path d="M609.6 498.9L564.6 379.1L521.3 432.1Z" fill="#205a7a" stroke="#205a7a"></path><path d="M577.6 257.5L502.3 258.5L516.3 332.3Z" fill="#277297" stroke="#277297"></path><path d="M516.3 332.3L502.3 258.5L450.9 331.3Z" fill="#246688" stroke="#246688"></path><path d="M564.6 379.1L564.6 336.3L516.3 332.3Z" fill="#0c2435" stroke="#0c2435"></path><path d="M91.4 553.7L205.8 627.5L202.8 569.7Z" fill="#15384f" stroke="#15384f"></path><path d="M202.8 569.7L205.8 627.5L220.1 598.7Z" fill="#19435d" stroke="#19435d"></path><path d="M220.1 598.7L233.1 676.5L338.5 622.5Z" fill="#205a7a" stroke="#205a7a"></path><path d="M91.4 553.7L202.8 569.7L177.8 520.9Z" fill="#246688" stroke="#246688"></path><path d="M457.9 602.7L541.3 583.7L522.3 508.9Z" fill="#277297" stroke="#277297"></path><path d="M522.3 508.9L609.6 498.9L521.3 432.1Z" fill="#15384f" stroke="#15384f"></path><path d="M121.4 312.3L182.8 348.3L226.1 288.3Z" fill="#246688" stroke="#246688"></path><path d="M133.8 396.1L83.4 497.9L177.8 520.9Z" fill="#1d4e6b" stroke="#1d4e6b"></path><path d="M136.8 244.5L121.4 312.3L226.1 288.3Z" fill="#19435d" stroke="#19435d"></path><path d="M136.8 244.5L226.1 288.3L244.1 260.5Z" fill="#15384f" stroke="#15384f"></path><path d="M541.3 583.7L575.6 548.7L522.3 508.9Z" fill="#112e42" stroke="#112e42"></path><path d="M564.6 379.1L675 303.3L564.6 336.3Z" fill="#081a28" stroke="#081a28"></path><path d="M205.8 627.5L233.1 676.5L220.1 598.7Z" fill="#081a28" stroke="#081a28"></path><path d="M338.5 622.5L429.9 691.5L457.9 602.7Z" fill="#205a7a" stroke="#205a7a"></path><path d="M457.9 602.7L527.3 641.5L541.3 583.7Z" fill="#00101c" stroke="#00101c"></path><path d="M99.4 400.1L83.4 497.9L133.8 396.1Z" fill="#277297" stroke="#277297"></path><path d="M205.8 627.5L148.8 771.4L233.1 676.5Z" fill="#1d4e6b" stroke="#1d4e6b"></path><path d="M575.6 548.7L609.6 498.9L522.3 508.9Z" fill="#00101c" stroke="#00101c"></path><path d="M382.9 753.4L429.9 691.5L338.5 622.5Z" fill="#00101c" stroke="#00101c"></path><path d="M541.3 583.7L568.6 659.5L575.6 548.7Z" fill="#205a7a" stroke="#205a7a"></path><path d="M675 539.7L675 462.9L609.6 498.9Z" fill="#205a7a" stroke="#205a7a"></path><path d="M429.9 691.5L527.3 641.5L457.9 602.7Z" fill="#0c2435" stroke="#0c2435"></path><path d="M192.8 165.6L136.8 244.5L244.1 260.5Z" fill="#1d4e6b" stroke="#1d4e6b"></path><path d="M0 359.3L0 380.1L99.4 400.1Z" fill="#15384f" stroke="#15384f"></path><path d="M577.6 257.5L497.3 194.6L502.3 258.5Z" fill="#19435d" stroke="#19435d"></path><path d="M502.3 258.5L497.3 194.6L390.9 266.5Z" fill="#15384f" stroke="#15384f"></path><path d="M318.5 228.5L268.1 139.6L244.1 260.5Z" fill="#081a28" stroke="#081a28"></path><path d="M83.4 497.9L91.4 553.7L177.8 520.9Z" fill="#00101c" stroke="#00101c"></path><path d="M675 303.3L577.6 257.5L564.6 336.3Z" fill="#112e42" stroke="#112e42"></path><path d="M564.6 336.3L577.6 257.5L516.3 332.3Z" fill="#00101c" stroke="#00101c"></path><path d="M450.9 149.6L340.5 131.6L390.9 266.5Z" fill="#112e42" stroke="#112e42"></path><path d="M427.9 95.8L450.9 149.6L503.3 67.8Z" fill="#19435d" stroke="#19435d"></path><path d="M497.3 194.6L450.9 149.6L390.9 266.5Z" fill="#246688" stroke="#246688"></path><path d="M340.5 131.6L268.1 139.6L318.5 228.5Z" fill="#081a28" stroke="#081a28"></path><path d="M268.1 139.6L192.8 165.6L244.1 260.5Z" fill="#112e42" stroke="#112e42"></path><path d="M233.1 676.5L316.5 744.4L338.5 622.5Z" fill="#112e42" stroke="#112e42"></path><path d="M527.3 641.5L568.6 659.5L541.3 583.7Z" fill="#277297" stroke="#277297"></path><path d="M585.6 723.4L568.6 659.5L530.3 763.4Z" fill="#112e42" stroke="#112e42"></path><path d="M568.6 659.5L527.3 641.5L530.3 763.4Z" fill="#1d4e6b" stroke="#1d4e6b"></path><path d="M316.5 744.4L382.9 753.4L338.5 622.5Z" fill="#1d4e6b" stroke="#1d4e6b"></path><path d="M233.1 676.5L285.1 750.4L316.5 744.4Z" fill="#1d4e6b" stroke="#1d4e6b"></path><path d="M316.5 744.4L387.9 796.2L382.9 753.4Z" fill="#15384f" stroke="#15384f"></path><path d="M226.1 788.2L285.1 750.4L233.1 676.5Z" fill="#0c2435" stroke="#0c2435"></path><path d="M675 462.9L675 431.1L609.6 498.9Z" fill="#15384f" stroke="#15384f"></path><path d="M609.6 498.9L675 431.1L564.6 379.1Z" fill="#297ea6" stroke="#297ea6"></path><path d="M675 539.7L609.6 498.9L575.6 548.7Z" fill="#246688" stroke="#246688"></path><path d="M345.5 80.8L243.1 110.8L268.1 139.6Z" fill="#205a7a" stroke="#205a7a"></path><path d="M268.1 139.6L243.1 110.8L192.8 165.6Z" fill="#246688" stroke="#246688"></path><path d="M345.5 80.8L268.1 139.6L340.5 131.6Z" fill="#112e42" stroke="#112e42"></path><path d="M503.3 67.8L450.9 149.6L497.3 194.6Z" fill="#0c2435" stroke="#0c2435"></path><path d="M450.9 149.6L427.9 95.8L340.5 131.6Z" fill="#0c2435" stroke="#0c2435"></path><path d="M675 629.5L675 539.7L575.6 548.7Z" fill="#1d4e6b" stroke="#1d4e6b"></path><path d="M0 359.3L99.4 400.1L121.4 312.3Z" fill="#19435d" stroke="#19435d"></path><path d="M99.4 400.1L0 380.1L83.4 497.9Z" fill="#0c2435" stroke="#0c2435"></path><path d="M0 582.7L65.4 655.5L91.4 553.7Z" fill="#277297" stroke="#277297"></path><path d="M0 359.3L121.4 312.3L0 282.5Z" fill="#15384f" stroke="#15384f"></path><path d="M427.9 95.8L345.5 80.8L340.5 131.6Z" fill="#205a7a" stroke="#205a7a"></path><path d="M675 431.1L675 303.3L564.6 379.1Z" fill="#081a28" stroke="#081a28"></path><path d="M555.6 58.8L503.3 67.8L497.3 194.6Z" fill="#15384f" stroke="#15384f"></path><path d="M63.4 210.5L121.4 312.3L136.8 244.5Z" fill="#277297" stroke="#277297"></path><path d="M116.4 161.6L136.8 244.5L192.8 165.6Z" fill="#0c2435" stroke="#0c2435"></path><path d="M153.8 53.8L116.4 161.6L192.8 165.6Z" fill="#205a7a" stroke="#205a7a"></path><path d="M116.4 161.6L63.4 210.5L136.8 244.5Z" fill="#081a28" stroke="#081a28"></path><path d="M0 527.9L91.4 553.7L83.4 497.9Z" fill="#19435d" stroke="#19435d"></path><path d="M91.4 553.7L65.4 655.5L205.8 627.5Z" fill="#277297" stroke="#277297"></path><path d="M0 380.1L0 527.9L83.4 497.9Z" fill="#297ea6" stroke="#297ea6"></path><path d="M675 303.3L675 280.5L577.6 257.5Z" fill="#1d4e6b" stroke="#1d4e6b"></path><path d="M305.5 814.2L387.9 796.2L316.5 744.4Z" fill="#297ea6" stroke="#297ea6"></path><path d="M382.9 753.4L530.3 763.4L429.9 691.5Z" fill="#081a28" stroke="#081a28"></path><path d="M305.5 814.2L316.5 744.4L285.1 750.4Z" fill="#081a28" stroke="#081a28"></path><path d="M148.8 771.4L226.1 788.2L233.1 676.5Z" fill="#19435d" stroke="#19435d"></path><path d="M63.4 210.5L0 282.5L121.4 312.3Z" fill="#246688" stroke="#246688"></path><path d="M530.3 763.4L527.3 641.5L429.9 691.5Z" fill="#15384f" stroke="#15384f"></path><path d="M568.6 659.5L675 629.5L575.6 548.7Z" fill="#277297" stroke="#277297"></path><path d="M0 527.9L0 582.7L91.4 553.7Z" fill="#246688" stroke="#246688"></path><path d="M387.9 796.2L530.3 763.4L382.9 753.4Z" fill="#081a28" stroke="#081a28"></path><path d="M585.6 723.4L675 629.5L568.6 659.5Z" fill="#00101c" stroke="#00101c"></path><path d="M226.1 788.2L305.5 814.2L285.1 750.4Z" fill="#112e42" stroke="#112e42"></path><path d="M70.4 763.4L148.8 771.4L65.4 655.5Z" fill="#246688" stroke="#246688"></path><path d="M65.4 655.5L148.8 771.4L205.8 627.5Z" fill="#205a7a" stroke="#205a7a"></path><path d="M284.1 900L350.5 900L305.5 814.2Z" fill="#246688" stroke="#246688"></path><path d="M620.6 140.6L497.3 194.6L577.6 257.5Z" fill="#112e42" stroke="#112e42"></path><path d="M413.9 0L362.5 0L345.5 80.8Z" fill="#081a28" stroke="#081a28"></path><path d="M0 582.7L0 625.5L65.4 655.5Z" fill="#112e42" stroke="#112e42"></path><path d="M675 280.5L620.6 140.6L577.6 257.5Z" fill="#081a28" stroke="#081a28"></path><path d="M64.4 779.2L157.8 786.2L148.8 771.4Z" fill="#277297" stroke="#277297"></path><path d="M148.8 771.4L157.8 786.2L226.1 788.2Z" fill="#19435d" stroke="#19435d"></path><path d="M47.4 96.8L0 190.6L63.4 210.5Z" fill="#297ea6" stroke="#297ea6"></path><path d="M63.4 210.5L0 190.6L0 282.5Z" fill="#081a28" stroke="#081a28"></path><path d="M47.4 96.8L63.4 210.5L116.4 161.6Z" fill="#19435d" stroke="#19435d"></path><path d="M243.1 110.8L153.8 53.8L192.8 165.6Z" fill="#246688" stroke="#246688"></path><path d="M249.1 0L153.8 53.8L243.1 110.8Z" fill="#297ea6" stroke="#297ea6"></path><path d="M249.1 0L243.1 110.8L345.5 80.8Z" fill="#0c2435" stroke="#0c2435"></path><path d="M620.6 140.6L555.6 58.8L497.3 194.6Z" fill="#297ea6" stroke="#297ea6"></path><path d="M413.9 0L345.5 80.8L427.9 95.8Z" fill="#0c2435" stroke="#0c2435"></path><path d="M0 767.4L70.4 763.4L65.4 655.5Z" fill="#1d4e6b" stroke="#1d4e6b"></path><path d="M413.9 0L427.9 95.8L503.3 67.8Z" fill="#297ea6" stroke="#297ea6"></path><path d="M675 280.5L675 146.6L620.6 140.6Z" fill="#246688" stroke="#246688"></path><path d="M620.6 140.6L675 96.8L555.6 58.8Z" fill="#205a7a" stroke="#205a7a"></path><path d="M489.3 0L413.9 0L503.3 67.8Z" fill="#00101c" stroke="#00101c"></path><path d="M585.6 723.4L675 726.4L675 629.5Z" fill="#1d4e6b" stroke="#1d4e6b"></path><path d="M675 821.2L675 726.4L585.6 723.4Z" fill="#112e42" stroke="#112e42"></path><path d="M362.5 0L249.1 0L345.5 80.8Z" fill="#0c2435" stroke="#0c2435"></path><path d="M0 767.4L64.4 779.2L70.4 763.4Z" fill="#277297" stroke="#277297"></path><path d="M70.4 763.4L64.4 779.2L148.8 771.4Z" fill="#0c2435" stroke="#0c2435"></path><path d="M284.1 900L305.5 814.2L226.1 788.2Z" fill="#00101c" stroke="#00101c"></path><path d="M0 47.8L47.4 96.8L49.4 0Z" fill="#246688" stroke="#246688"></path><path d="M153.8 53.8L47.4 96.8L116.4 161.6Z" fill="#112e42" stroke="#112e42"></path><path d="M387.9 796.2L521.3 849.2L530.3 763.4Z" fill="#246688" stroke="#246688"></path><path d="M530.3 763.4L606.6 841.2L585.6 723.4Z" fill="#246688" stroke="#246688"></path><path d="M430.9 900L521.3 849.2L387.9 796.2Z" fill="#00101c" stroke="#00101c"></path><path d="M350.5 900L387.9 796.2L305.5 814.2Z" fill="#0c2435" stroke="#0c2435"></path><path d="M617.6 0L489.3 0L555.6 58.8Z" fill="#081a28" stroke="#081a28"></path><path d="M555.6 58.8L489.3 0L503.3 67.8Z" fill="#0c2435" stroke="#0c2435"></path><path d="M249.1 0L175.8 0L153.8 53.8Z" fill="#1d4e6b" stroke="#1d4e6b"></path><path d="M284.1 900L226.1 788.2L168.8 900Z" fill="#297ea6" stroke="#297ea6"></path><path d="M675 146.6L675 96.8L620.6 140.6Z" fill="#081a28" stroke="#081a28"></path><path d="M168.8 900L226.1 788.2L157.8 786.2Z" fill="#00101c" stroke="#00101c"></path><path d="M350.5 900L430.9 900L387.9 796.2Z" fill="#112e42" stroke="#112e42"></path><path d="M0 625.5L0 767.4L65.4 655.5Z" fill="#246688" stroke="#246688"></path><path d="M67.4 900L168.8 900L157.8 786.2Z" fill="#1d4e6b" stroke="#1d4e6b"></path><path d="M570.6 900L606.6 841.2L521.3 849.2Z" fill="#081a28" stroke="#081a28"></path><path d="M521.3 849.2L606.6 841.2L530.3 763.4Z" fill="#0c2435" stroke="#0c2435"></path><path d="M430.9 900L521.3 900L521.3 849.2Z" fill="#1d4e6b" stroke="#1d4e6b"></path><path d="M67.4 900L157.8 786.2L64.4 779.2Z" fill="#246688" stroke="#246688"></path><path d="M675 96.8L617.6 0L555.6 58.8Z" fill="#00101c" stroke="#00101c"></path><path d="M606.6 841.2L675 821.2L585.6 723.4Z" fill="#277297" stroke="#277297"></path><path d="M675 900L675 821.2L606.6 841.2Z" fill="#1d4e6b" stroke="#1d4e6b"></path><path d="M49.4 0L47.4 96.8L153.8 53.8Z" fill="#297ea6" stroke="#297ea6"></path><path d="M47.4 96.8L0 47.8L0 190.6Z" fill="#0c2435" stroke="#0c2435"></path><path d="M521.3 900L570.6 900L521.3 849.2Z" fill="#15384f" stroke="#15384f"></path><path d="M0 767.4L0 824.2L64.4 779.2Z" fill="#277297" stroke="#277297"></path><path d="M175.8 0L49.4 0L153.8 53.8Z" fill="#112e42" stroke="#112e42"></path><path d="M675 96.8L675 0L617.6 0Z" fill="#297ea6" stroke="#297ea6"></path><path d="M0 824.2L67.4 900L64.4 779.2Z" fill="#205a7a" stroke="#205a7a"></path><path d="M49.4 0L0 0L0 47.8Z" fill="#081a28" stroke="#081a28"></path><path d="M570.6 900L675 900L606.6 841.2Z" fill="#15384f" stroke="#15384f"></path><path d="M0 824.2L0 900L67.4 900Z" fill="#0c2435" stroke="#0c2435"></path></g></svg>